<svg xmlns="http://www.w3.org/2000/svg" width="180" height="50" viewBox="0 0 180 50"><defs><style>.a{fill:none;}.b{fill:#fff;}</style></defs><rect class="a" width="180" height="50" transform="translate(0 0)"/><path class="b" d="M2.66.511H13.215V-2.223H5.993V-13.991H2.66ZM21.815.76c4.526,0,7.88-3.17,7.88-7.5s-3.354-7.5-7.88-7.5c-4.547,0-7.88,3.191-7.88,7.5S17.268.76,21.815.76Zm0-2.859A4.409,4.409,0,0,1,17.309-6.74a4.409,4.409,0,0,1,4.506-4.641A4.409,4.409,0,0,1,26.321-6.74,4.409,4.409,0,0,1,21.815-2.1Zm20.122-.622a5.261,5.261,0,0,1-2.592.622,4.461,4.461,0,0,1-4.67-4.641,4.449,4.449,0,0,1,4.712-4.641A4.858,4.858,0,0,1,43.11-9.744l2.14-1.989a7.652,7.652,0,0,0-6.028-2.507c-4.588,0-7.921,3.128-7.921,7.5s3.333,7.5,7.86,7.5a9.891,9.891,0,0,0,5.823-1.844V-6.968H41.937ZM54.044.76c4.526,0,7.88-3.17,7.88-7.5s-3.354-7.5-7.88-7.5c-4.547,0-7.88,3.191-7.88,7.5S49.5.76,54.044.76Zm0-2.859A4.409,4.409,0,0,1,49.538-6.74a4.409,4.409,0,0,1,4.506-4.641A4.409,4.409,0,0,1,58.549-6.74,4.409,4.409,0,0,1,54.044-2.1ZM73.24.511h3.333V-11.257h4.609v-2.735H68.631v2.735H73.24ZM86.284-2.182V-5.538h6.687v-2.61H86.284V-11.3h7.571v-2.693H82.972V.511H94.123V-2.182ZM109.554.511l-5.37-7.5,5.02-7h-3.6l-3.251,4.7-3.313-4.7H95.255l5.061,7.127L94.987.511h3.827l3.415-5.035L105.707.511Zm5.164,0h3.333V-11.257h4.609v-2.735H110.109v2.735h4.609Z" transform="translate(57.34 31.24)"/><path class="b" d="M-1880,35a24.843,24.843,0,0,1-9.731-1.965,24.919,24.919,0,0,1-7.947-5.358,24.918,24.918,0,0,1-5.358-7.947A24.842,24.842,0,0,1-1905,10a24.842,24.842,0,0,1,1.965-9.731,24.918,24.918,0,0,1,5.358-7.947,24.919,24.919,0,0,1,7.947-5.358A24.843,24.843,0,0,1-1880-15a24.843,24.843,0,0,1,9.731,1.965,24.918,24.918,0,0,1,7.947,5.358,24.92,24.92,0,0,1,5.358,7.947A24.845,24.845,0,0,1-1855,10a24.845,24.845,0,0,1-1.965,9.731,24.92,24.92,0,0,1-5.358,7.947,24.918,24.918,0,0,1-7.947,5.358A24.843,24.843,0,0,1-1880,35Zm0-47a22.025,22.025,0,0,0-22,22,22.025,22.025,0,0,0,22,22,22.025,22.025,0,0,0,22-22A22.025,22.025,0,0,0-1880-12Z" transform="translate(1905 15)"/><path class="b" d="M-1844,20h-12l-1.86-3.1h8.46l-6.6-11-4.229,7.05L-1862,10l6-10,12,20Z" transform="translate(1886 13)"/><path class="b" d="M-1856,20h-24l12-20,12,20Zm-12-14.1-6.6,11h13.2l-6.6-11Z" transform="translate(1888 13)"/></svg>